<svg width="73" height="12" viewBox="0 0 73 12" fill="none" xmlns="http://www.w3.org/2000/svg">
<path d="M67.2557 11.8605H68.8743C70.7162 11.8605 72.2232 10.3535 72.2232 8.51165C72.2232 6.50235 70.7162 4.99538 68.8743 4.99538H67.2557V11.8605Z" fill="#0C90D2"/>
<path d="M5.41395 6.86511H2.26046V9.59999H5.41395C6.33488 9.59999 6.89302 9.09766 6.89302 8.23255C6.89302 7.50697 6.39069 6.86511 5.41395 6.86511ZM5.33023 2.14883H2.26046V4.71627H5.33023C6.16744 4.71627 6.66976 4.18604 6.66976 3.43255C6.66976 2.70697 6.16744 2.14883 5.33023 2.14883ZM6.05581 11.7767H1.2C0.446511 11.7767 0 11.1349 0 10.3535V1.42325C0 0.64186 0.446511 0 1.2 0H5.86046C8.0372 0 9.15348 1.42325 9.15348 3.01395C9.15348 4.49302 8.26046 5.49767 7.17208 5.72092C8.39999 5.91627 9.37673 7.14418 9.37673 8.62325C9.40464 10.3814 8.23255 11.7767 6.05581 11.7767Z" fill="#010101"/>
<path d="M15.3488 5.1069C13.9535 5.1069 13.2 6.25108 13.2 7.56271C13.2 8.90224 13.9814 10.0185 15.3488 10.0185C16.7442 10.0185 17.5256 8.87434 17.5256 7.56271C17.4977 6.25108 16.7163 5.1069 15.3488 5.1069ZM15.3488 11.9999C12.5581 11.9999 10.8837 9.96271 10.8837 7.56271C10.8837 5.16271 12.5581 3.15341 15.3488 3.15341C18.1395 3.15341 19.8419 5.19062 19.8419 7.56271C19.814 9.96271 18.1395 11.9999 15.3488 11.9999Z" fill="#010101"/>
<path d="M33.0419 11.8883C32.428 11.8883 31.9256 11.386 31.9256 10.7999V6.47434C31.9256 5.69294 31.5629 5.1348 30.6698 5.1348C29.8884 5.1348 29.2466 5.66504 28.9117 6.11155V10.7999C28.9117 11.4139 28.4094 11.8883 27.7675 11.8883C27.1536 11.8883 26.6512 11.386 26.6512 10.7999V6.47434C26.6512 5.69294 26.2884 5.1348 25.3954 5.1348C24.614 5.1348 23.9722 5.66504 23.6373 6.13945V10.8278C23.6373 11.4418 23.135 11.9162 22.521 11.9162C21.907 11.9162 21.4047 11.4139 21.4047 10.8278V4.3255C21.4047 3.73946 21.907 3.23713 22.5489 3.23713C23.135 3.23713 23.6373 3.73946 23.6373 4.3255V4.46504C24.0001 3.96271 25.1163 3.15341 26.4001 3.15341C27.6559 3.15341 28.4373 3.73946 28.7442 4.68829C29.2466 3.9069 30.3629 3.15341 31.6466 3.15341C33.2094 3.15341 34.1303 3.96271 34.1303 5.69294V10.7999C34.1861 11.4139 33.7117 11.8883 33.0419 11.8883Z" fill="#010101"/>
<path d="M41.4697 8.70672C41.1069 8.2323 40.4092 7.98114 39.6837 7.98114C38.8185 7.98114 38.093 8.42765 38.093 9.26486C38.093 10.0463 38.8185 10.4928 39.6837 10.4928C40.4092 10.4928 41.1069 10.2416 41.4697 9.76719V8.70672ZM42.586 11.8881H42.4185C42.2511 11.8881 41.4697 11.7486 41.4697 10.9114C40.8837 11.5811 39.9069 11.9997 38.7906 11.9997C37.4511 11.9997 35.8604 11.0788 35.8604 9.20905C35.8604 7.22765 37.4511 6.47417 38.7906 6.47417C39.9069 6.47417 40.9116 6.83696 41.4697 7.50672V6.36254C41.4697 5.49742 40.7441 4.93928 39.6279 4.93928C38.9581 4.93928 38.3162 5.10673 37.7302 5.46952C37.6185 5.55324 37.479 5.58114 37.3395 5.58114C36.9488 5.58114 36.5023 5.24626 36.5023 4.71603C36.5023 4.54859 36.5581 4.40905 36.6139 4.26952C37.1441 3.43231 39.0418 3.06952 40.0185 3.06952C41.9441 3.06952 43.7023 3.85091 43.7023 6.27882V10.7439C43.6744 11.4137 43.1999 11.8881 42.586 11.8881Z" fill="#0C90D2"/>
<path d="M46.9953 11.8883C46.3814 11.8883 45.879 11.386 45.879 10.7999V4.32554C45.879 3.73949 46.3814 3.23717 47.0232 3.23717C47.6093 3.23717 48.1116 3.73949 48.1116 4.32554V10.7999C48.1116 11.4139 47.6093 11.8883 46.9953 11.8883Z" fill="#0C90D2"/>
<path d="M56.1209 6.0837C55.7582 5.52556 54.9489 5.13487 54.1954 5.13487C52.9396 5.13487 52.0465 6.13952 52.0465 7.59068C52.0465 9.04184 52.9117 10.0465 54.1954 10.0465C54.9489 10.0465 55.7582 9.65579 56.1209 9.09765V6.0837ZM57.2372 11.8883C56.6233 11.8883 56.1209 11.386 56.1209 10.8V10.7163C55.4512 11.5535 54.5303 12 53.5256 12C51.3768 12 49.7861 10.3814 49.7861 7.59068C49.7861 4.82789 51.3768 3.15347 53.5256 3.15347C54.5303 3.15347 55.4791 3.59998 56.1209 4.43719V1.14417C56.1209 0.530219 56.6233 0.0558014 57.2651 0.0558014C57.8791 0.0558014 58.3814 0.558126 58.3814 1.14417V10.8C58.3814 11.4139 57.8791 11.8883 57.2372 11.8883Z" fill="#0C90D2"/>
<path d="M47.9442 0.25116H46.0186V2.09302H47.9442V0.25116Z" fill="#0C90D2"/>
<path d="M67.2557 11.8605V3.34883C67.2557 1.50698 65.7487 0 63.9068 0C61.8975 0 60.3906 1.50698 60.3906 3.34883V11.8605H67.2557Z" fill="#010101"/>
</svg>
