<svg width="14" height="14" viewBox="0 0 14 14" fill="none" xmlns="http://www.w3.org/2000/svg">
<path d="M11.7851 8.76641C11.7851 8.64609 11.8179 8.53125 11.8754 8.43281C11.8918 8.40273 11.9137 8.37539 11.9328 8.34805C12.4086 7.63711 12.6875 6.78672 12.6875 5.87891C12.6957 3.35781 10.5683 1.3125 7.93787 1.3125C5.64373 1.3125 3.72966 2.87383 3.28123 4.94648C3.2156 5.25 3.18005 5.55898 3.18005 5.88164C3.18005 8.40547 5.22537 10.5055 7.85584 10.5055C8.2742 10.5055 8.83748 10.3797 9.14646 10.2949C9.45545 10.2102 9.7617 10.098 9.84099 10.068C9.92029 10.0379 10.0078 10.0215 10.0953 10.0215C10.1937 10.0215 10.2867 10.0406 10.3715 10.0762L11.9219 10.6258C11.9219 10.6258 11.9875 10.6531 12.0285 10.6531C12.1488 10.6531 12.2472 10.5574 12.2472 10.4344C12.2472 10.407 12.2336 10.3605 12.2336 10.3605L11.7851 8.76641Z" fill="#0C90D2"/>
<path d="M8.70899 10.7326C8.61055 10.7599 8.48477 10.79 8.34805 10.8201C8.06094 10.8803 7.69453 10.9432 7.41836 10.9432C4.78789 10.9432 2.74258 8.84315 2.74258 6.31932C2.74258 6.13886 2.76172 5.90917 2.78359 5.73417C2.8 5.61659 2.81914 5.49901 2.84648 5.38417C2.87383 5.26112 2.90664 5.13807 2.94219 5.01776L2.72344 5.2119C1.82656 5.99393 1.3125 7.10956 1.3125 8.27167C1.3125 9.07284 1.54492 9.84393 1.99063 10.5139C2.05352 10.6096 2.08906 10.6834 2.07813 10.7326C2.06719 10.7818 1.75273 12.4279 1.75273 12.4279C1.73633 12.5072 1.76641 12.5865 1.82656 12.6385C1.86758 12.6713 1.9168 12.6877 1.96602 12.6877C1.99336 12.6877 2.0207 12.6822 2.04531 12.6713L3.5793 12.067C3.62852 12.0478 3.68047 12.0369 3.73516 12.0369C3.73516 12.0369 3.80078 12.0314 3.90742 12.0724C4.42422 12.2748 4.9957 12.4006 5.56719 12.4006C6.84141 12.4006 8.03906 11.851 8.85117 10.8939C8.85117 10.8939 8.93867 10.7736 9.03984 10.6314C8.93867 10.667 8.82383 10.7025 8.70899 10.7326Z" fill="black"/>
</svg>
