<svg width="50" height="50" viewBox="0 0 50 50" fill="none" xmlns="http://www.w3.org/2000/svg">
<g filter="url(#filter0_b_1002_9414)">
<rect width="50" height="50" rx="25" fill="#0C90D2" fill-opacity="0.1"/>
<path d="M35.5067 21.2626H19.057V17.8419C19.057 16.552 19.6782 15.3405 20.8069 14.4212C21.9357 13.5019 23.4231 12.9959 25.0069 12.9959C26.5906 12.9959 28.0781 13.5019 29.2068 14.4212C30.3355 15.3405 30.9568 16.552 30.9568 17.8419C30.9568 18.3906 31.508 18.8396 32.1818 18.8396C32.8555 18.8396 33.4067 18.3906 33.4067 17.8419C33.4067 14.0506 29.5655 10.9506 24.8931 11.0005C20.2819 11.0504 16.607 14.1717 16.607 17.9345V21.2626H14.507C12.5821 21.2626 11.0071 22.5453 11.0071 24.1131V37.7959C11.0071 39.3637 12.5821 40.6465 14.507 40.6465H35.5067C37.4317 40.6465 39.0066 39.3637 39.0066 37.7959V24.1131C39.0066 22.5453 37.4317 21.2626 35.5067 21.2626Z" fill="#0C90D2" fill-opacity="0.4"/>
<path fill-rule="evenodd" clip-rule="evenodd" d="M18.6771 31.1651C17.9329 29.044 18.8027 26.6195 21.242 25.9021C22.5252 25.5241 23.9416 26.5862 25.0083 27.3188C26.0175 26.6065 27.4858 25.5266 28.7675 25.9021C31.2069 26.6195 32.0822 29.044 31.3387 31.1651C30.1804 34.5273 25.0082 37.1171 25.0082 37.1171C25.0082 37.1171 19.8743 34.5666 18.6771 31.1651Z" fill="#0C90D2"/>
</g>
<defs>
<filter id="filter0_b_1002_9414" x="-10.2397" y="-10.2397" width="70.4793" height="70.4793" filterUnits="userSpaceOnUse" color-interpolation-filters="sRGB">
<feFlood flood-opacity="0" result="BackgroundImageFix"/>
<feGaussianBlur in="BackgroundImageFix" stdDeviation="5.11983"/>
<feComposite in2="SourceAlpha" operator="in" result="effect1_backgroundBlur_1002_9414"/>
<feBlend mode="normal" in="SourceGraphic" in2="effect1_backgroundBlur_1002_9414" result="shape"/>
</filter>
</defs>
</svg>
