<svg width="61" height="61" viewBox="0 0 61 61" fill="none" xmlns="http://www.w3.org/2000/svg">
<g filter="url(#filter0_b_1002_12144)">
<rect x="0.5" y="0.5" width="60" height="60" rx="30" fill="#0C90D2" fill-opacity="0.1"/>
<path opacity="0.3" d="M15.625 48C14.925 48 14.3125 47.7375 13.7875 47.2125C13.2625 46.6875 13 46.075 13 45.375V26.125C13 25.425 13.2625 24.8125 13.7875 24.2875C14.3125 23.7625 14.925 23.5 15.625 23.5H20V33.2562H25.25V23.5H45.375C46.075 23.5 46.6875 23.7625 47.2125 24.2875C47.7375 24.8125 48 25.425 48 26.125V45.375C48 46.075 47.7375 46.6875 47.2125 47.2125C46.6875 47.7375 46.075 48 45.375 48H15.625Z" fill="#0C90D2"/>
<path d="M20 33.2563V23.5V13H33.125V19.3438H22.625V33.2563H20Z" fill="#0C90D2"/>
</g>
<defs>
<filter id="filter0_b_1002_12144" x="-8.71569" y="-8.71569" width="78.4314" height="78.4314" filterUnits="userSpaceOnUse" color-interpolation-filters="sRGB">
<feFlood flood-opacity="0" result="BackgroundImageFix"/>
<feGaussianBlur in="BackgroundImageFix" stdDeviation="4.60784"/>
<feComposite in2="SourceAlpha" operator="in" result="effect1_backgroundBlur_1002_12144"/>
<feBlend mode="normal" in="SourceGraphic" in2="effect1_backgroundBlur_1002_12144" result="shape"/>
</filter>
</defs>
</svg>
