<svg width="61" height="61" viewBox="0 0 61 61" fill="none" xmlns="http://www.w3.org/2000/svg">
<g filter="url(#filter0_b_1002_9654)">
<rect x="0.5" y="0.5" width="60" height="60" rx="30" fill="#0C90D2" fill-opacity="0.1"/>
<g opacity="0.4">
<path d="M23.4959 27.2251C23.8166 26.8714 23.7899 26.3247 23.4363 26.004C23.1361 25.7318 23.073 25.2902 23.2245 24.9144C23.4616 24.3266 23.5914 23.6886 23.5914 23.0219C23.5914 22.5592 23.5289 22.1103 23.4114 21.6824C23.2862 21.2267 23.4243 20.7193 23.8212 20.4627C24.2623 20.1774 24.3886 19.5885 24.1033 19.1474L23.8737 18.7925C22.583 16.7969 20.3337 15.4718 17.7744 15.4718C13.7676 15.4718 10.5171 18.7201 10.5171 22.7292C10.5171 26.7383 13.7676 29.9865 17.7744 29.9865C19.9075 29.9865 21.8274 29.0651 23.1537 27.6024L23.4959 27.2251Z" fill="#0C90D2"/>
<path d="M24.2505 36.8571C23.8155 36.4567 23.1054 36.7375 22.7949 37.2405C22.1917 38.2178 21.1099 39.288 19.8838 40.1486C19.8568 40.1675 19.8702 40.2102 19.9032 40.2102C19.9217 40.2101 19.9368 40.2251 19.9368 40.2437L19.9406 41.8101C19.9428 42.6938 19.2282 43.4119 18.3445 43.414C14.7222 43.4229 11.1907 42.747 8.13255 40.8825C7.50377 40.4992 7.21785 39.7362 7.43986 39.034C9.05627 33.9218 13.4945 31.6412 18.3406 31.6523C21.3673 31.6453 24.2593 32.516 26.4176 34.5025C27.0677 35.1009 27.1097 36.1131 26.5113 36.7633C25.9128 37.4135 24.9006 37.4555 24.2505 36.8571Z" fill="#0C90D2"/>
<path fill-rule="evenodd" clip-rule="evenodd" d="M37.9321 36.8859C37.6802 36.5415 37.179 36.4018 36.865 36.6907C36.3067 37.2046 35.4376 37.1685 34.9238 36.6102C34.4099 36.0519 34.446 35.1827 35.0043 34.6689C37.1111 32.73 39.9434 31.8716 42.9282 31.8786C47.702 31.8675 52.034 34.1069 53.6135 39.102C53.8042 39.7049 53.5587 40.3601 53.0187 40.6892C50.0068 42.5254 46.5201 43.1963 42.9248 43.1875C42.1661 43.1857 41.5525 42.5691 41.5543 41.8103C41.5562 41.0516 42.1728 40.438 42.9315 40.4398C42.9366 40.4398 42.938 40.4329 42.9333 40.4311C40.9332 39.6639 38.8826 38.1858 37.9321 36.8859ZM50.5806 38.8876C50.5785 38.8906 50.5817 38.8945 50.585 38.8929C50.5868 38.892 50.5875 38.8899 50.5867 38.8882C50.5855 38.8857 50.5822 38.8854 50.5806 38.8876Z" fill="#0C90D2"/>
<path d="M38.3437 20.9618C38.5452 20.4889 38.487 19.9208 38.1062 19.5755C37.6815 19.1904 37.6495 18.5339 38.0346 18.1093L38.2602 17.8605C39.5865 16.3979 41.5064 15.4764 43.6395 15.4764C47.6463 15.4764 50.8968 18.7247 50.8968 22.7338C50.8968 26.7429 47.6463 29.9911 43.6395 29.9911C41.0802 29.9911 38.8309 28.6661 37.5401 26.6705L37.329 26.344C37.0335 25.8872 37.1643 25.2773 37.6211 24.9819C38.0161 24.7264 38.1638 24.2287 38.0673 23.7682C38.0019 23.4564 37.9677 23.134 37.9677 22.8041C37.9677 22.1529 38.1012 21.5311 38.3437 20.9618Z" fill="#0C90D2"/>
</g>
<path d="M17.435 43.203C19.436 36.8753 24.9011 34.0258 31.0229 34.0404C37.1388 34.0259 42.612 36.8815 44.6109 43.203C44.8016 43.8059 44.556 44.4611 44.0161 44.7903C40.1596 47.1412 35.679 48.0108 31.0229 47.9999C26.3669 48.0108 21.8863 47.1412 18.0298 44.7903C17.4898 44.4611 17.2443 43.8059 17.435 43.203Z" fill="#0C90D2"/>
<path d="M30.9636 13C25.949 13 21.8824 17.0633 21.8824 22.0789C21.8824 27.0945 25.949 31.1578 30.9636 31.1578C35.9761 31.1578 40.0425 27.0942 40.0425 22.0789C40.0425 17.0636 35.9761 13 30.9636 13Z" fill="#0C90D2"/>
</g>
<defs>
<filter id="filter0_b_1002_9654" x="-8.71569" y="-8.71569" width="78.4314" height="78.4314" filterUnits="userSpaceOnUse" color-interpolation-filters="sRGB">
<feFlood flood-opacity="0" result="BackgroundImageFix"/>
<feGaussianBlur in="BackgroundImageFix" stdDeviation="4.60784"/>
<feComposite in2="SourceAlpha" operator="in" result="effect1_backgroundBlur_1002_9654"/>
<feBlend mode="normal" in="SourceGraphic" in2="effect1_backgroundBlur_1002_9654" result="shape"/>
</filter>
</defs>
</svg>
