<svg width="61" height="61" viewBox="0 0 61 61" fill="none" xmlns="http://www.w3.org/2000/svg">
<g filter="url(#filter0_b_1002_9627)">
<rect x="0.5" y="0.5" width="60" height="60" rx="30" fill="#0C90D2" fill-opacity="0.1"/>
<path d="M44.6346 17.0385H41.2692V19.0577C41.2692 19.4279 40.9663 19.7308 40.5962 19.7308H39.25C38.8798 19.7308 38.5769 19.4279 38.5769 19.0577V17.0385H22.4231V19.0577C22.4231 19.4279 22.1202 19.7308 21.75 19.7308H20.4038C20.0337 19.7308 19.7308 19.4279 19.7308 19.0577V17.0385H16.3654C14.5144 17.0385 13 18.5529 13 20.4039V43.2885C13 45.1395 14.5144 46.6539 16.3654 46.6539H44.6346C46.4856 46.6539 48 45.1395 48 43.2885V20.4039C48 18.5529 46.4856 17.0385 44.6346 17.0385ZM45.3077 42.2789C45.3077 43.2044 44.5505 43.9616 43.625 43.9616H17.375C16.4495 43.9616 15.6923 43.2044 15.6923 42.2789V25.7301C15.6923 24.7573 16.9671 24.7573 17.375 24.7573H43.625C43.9952 24.7573 45.3077 24.7573 45.3077 25.7301V42.2789ZM22.4231 15.0193C22.4231 14.6491 22.1202 14.3462 21.75 14.3462H20.4038C20.0337 14.3462 19.7308 14.6491 19.7308 15.0193V17.0385H22.4231V15.0193ZM41.2692 15.0193C41.2692 14.6491 40.9663 14.3462 40.5962 14.3462H39.25C38.8798 14.3462 38.5769 14.6491 38.5769 15.0193V17.0385H41.2692V15.0193Z" fill="#0C90D2"/>
<path fill-rule="evenodd" clip-rule="evenodd" d="M23.7473 33.8681C22.9534 31.6053 23.8812 29.0191 26.4834 28.2538C27.8522 27.8506 29.3631 28.9835 30.5011 29.765C31.5776 29.0052 33.1438 27.8533 34.5111 28.2538C37.1133 29.0191 38.0471 31.6053 37.2539 33.8681C36.0183 37.4547 30.501 40.2172 30.501 40.2172C30.501 40.2172 25.0243 37.4966 23.7473 33.8681Z" fill="#0C90D2"/>
</g>
<defs>
<filter id="filter0_b_1002_9627" x="-8.71569" y="-8.71569" width="78.4314" height="78.4314" filterUnits="userSpaceOnUse" color-interpolation-filters="sRGB">
<feFlood flood-opacity="0" result="BackgroundImageFix"/>
<feGaussianBlur in="BackgroundImageFix" stdDeviation="4.60784"/>
<feComposite in2="SourceAlpha" operator="in" result="effect1_backgroundBlur_1002_9627"/>
<feBlend mode="normal" in="SourceGraphic" in2="effect1_backgroundBlur_1002_9627" result="shape"/>
</filter>
</defs>
</svg>
